<svg width="24" height="24" viewBox="0 0 24 24" fill="none" xmlns="http://www.w3.org/2000/svg">
<path d="M2 20H22" stroke="D83A56" stroke-width="2" stroke-linecap="round" stroke-linejoin="round"/>
<path d="M10.1683 8.60035L10.8366 7.85646V7.85646L10.1683 8.60035ZM14.6683 12.6431L14 13.387H14L14.6683 12.6431ZM15 19.9999V20.9999C15.5523 20.9999 16 20.5522 16 19.9999H15ZM4.33169 12.6431L5 13.387H5L4.33169 12.6431ZM8.8317 8.60035L9.5 9.34424L9.5 9.34424L8.8317 8.60035ZM9.5 9.34424L14 13.387L15.3366 11.8992L10.8366 7.85646L9.5 9.34424ZM14 13.387V19.9999H16V13.387H14ZM5 18.9999V13.387H3V18.9999H5ZM5 13.387L9.5 9.34424L8.16339 7.85646L3.66339 11.8992L5 13.387ZM15 18.9999H5V20.9999H15V18.9999ZM5 13.387L5 13.387L3.66339 11.8992C3.24117 12.2786 3 12.8194 3 13.387H5ZM3 18.9999C3 20.1045 3.89543 20.9999 5 20.9999V18.9999H5H3ZM14 13.387H14H16C16 12.8194 15.7588 12.2786 15.3366 11.8992L14 13.387ZM10.8366 7.85646C10.0764 7.1735 8.9236 7.1735 8.16339 7.85646L9.5 9.34424L9.5 9.34424L10.8366 7.85646Z" fill="#D83A56"/>
<path d="M14.875 20H19C19.5523 20 20 19.5523 20 19V5C20 4.44772 19.5523 4 19 4H8C7.44771 4 7 4.44772 7 5V10" stroke="#D83A56" stroke-width="2" stroke-linecap="round" stroke-linejoin="round"/>
</svg>
